<svg xmlns="http://www.w3.org/2000/svg" id="Camada_1" data-name="Camada 1" viewBox="0 0 575.06 333.31"><defs>
<style>.cls-1{fill:#fff;}.cls-2{fill:#3d1954;}.cls-3{fill:#7f469a;}.cls-4{fill:#06bbd3;}.cls-5{fill:#cd181e;}.cls-6{fill:#940057;}.cls-7{fill:#009645;}.cls-8{fill:#f05a22;}.cls-9{fill:#ea8b1c;}</style>
</defs><title>Sem título-2</title><path class="cls-1" d="M515.77,0H59.29A59.29,59.29,0,0,0,0,59.29V218.83a59.29,59.29,0,0,0,59.29,59.29H80.44v17.69a37.5,37.5,0,0,0,37.5,37.5c0.84,0,1.68,0,2.51-.09H494.56v0c0.75,0.07,1.51.11,2.28,0.11a24.06,24.06,0,0,0,16-6h0L572.06,268a10.94,10.94,0,0,0,3-7.5V59.29A59.29,59.29,0,0,0,515.77,0Z"/>
<path class="cls-2" d="M515.69,21.44H59.32a37.5,37.5,0,0,0-37.5,37.5v159.5a37.5,37.5,0,0,0,37.5,37.5H553.19v-197A37.5,37.5,0,0,0,515.69,21.44Z"/>
<path class="cls-1" d="M80.44,161.16c0,24,13.08,38.47,33.08,38.47,12.31,0,23.08-3.85,29.08-6.31l-3.38-20.93c-4.46,1.23-13.08,3.23-18.62,3.23-6.15,0-13.08-2.92-13.08-16.31,0-14.31,6.15-26.16,20.62-26.16,7.08,0,13.69,1.54,17.08,2l7.23-20.77c-3.23-1.23-16.93-5.38-27.24-5.38C94.75,109,80.44,135.31,80.44,161.16Z"/>
<polygon class="cls-1" points="169.56 80.07 153.25 197.32 180.48 197.32 196.95 80.07 169.56 80.07"/>
<path class="cls-1" d="M243,109.3c-12.31,0-27.7,4.46-33.54,6.15l2.62,20.62c4.15-1.08,15.85-3.69,23.39-3.69,8.62,0,12.31,3.08,12.31,8.93a14.12,14.12,0,0,1-.31,3.08l-0.15,1.23h-14c-15.39,0-38.16,4.92-38.16,30.93,0,15.39,10.46,23.08,24.31,23.08,14.31,0,22.31-7.69,26.62-14A54.2,54.2,0,0,0,249,197.32h21.08a69.8,69.8,0,0,1-.61-9.69,89.76,89.76,0,0,1,.77-11.23l4.15-28.93a69.92,69.92,0,0,0,.77-9.23C275.14,112.38,255.29,109.3,243,109.3Zm1.08,56.16c-2.77,10-8.46,13.39-14.31,13.39-6.15,0-8.46-3.38-8.46-7.69,0-4.92,3.08-9.69,11.08-10l12.92-.31A24.64,24.64,0,0,1,244.06,165.47Z"/>
<path class="cls-1" d="M326.17,130.38c10.46,0,20.62,2,26.93,3.39l7.08-20.16c-6.31-2.15-21.85-4.62-33.54-4.62-22.93,0-37.39,10.77-37.39,28.62,0,18.62,15.23,23.39,23.85,26,8,2.62,14.93,3.85,14.93,8.77,0,3.69-2.77,5.39-10.31,5.39-10.92,0-23.54-2.92-30.16-4.46l-6,20.31c10.77,3.54,23.23,6.16,35.54,6.16,23.39,0,38.93-11.69,38.93-30.93,0-18.62-14.93-22.62-24-25.39-9.08-2.62-15.23-3.39-15.23-8C316.78,132.08,319.55,130.38,326.17,130.38Z"/>
<path class="cls-1" d="M407,130.38c10.46,0,20.62,2,26.93,3.39L441,113.61c-6.31-2.15-21.85-4.62-33.54-4.62-22.93,0-37.39,10.77-37.39,28.62,0,18.62,15.23,23.39,23.85,26,8,2.62,14.92,3.85,14.92,8.77,0,3.69-2.77,5.39-10.31,5.39-10.92,0-23.54-2.92-30.16-4.46l-6,20.31c10.77,3.54,23.23,6.16,35.54,6.16,23.39,0,38.93-11.69,38.93-30.93,0-18.62-14.93-22.62-24-25.39-9.08-2.62-15.23-3.39-15.23-8C397.65,132.08,400.42,130.38,407,130.38Z"/>
<path class="cls-1" d="M479.87,80.07c-11.85,0-16.77,3.69-16.77,15.39,0,6.62,3.23,9.23,14.77,9.23,12.16,0,16.77-4,16.77-15.39C494.64,82.68,491.41,80.07,479.87,80.07Z"/><polygon class="cls-1" points="451.98 114.31 448.36 133.71 459.67 135.29 450.95 197.32 478.19 197.32 490.02 114.31 451.98 114.31"/>
<polygon class="cls-3" points="494.56 255.94 553.19 255.94 494.56 314.6 494.56 255.94"/><rect class="cls-4" x="119.42" y="279.63" width="30" height="30" rx="11.43" ry="11.43"/>
<rect class="cls-5" x="180.65" y="279.63" width="30" height="30" rx="11.43" ry="11.43"/><rect class="cls-6" x="241.87" y="279.63" width="30" height="30" rx="11.43" ry="11.43"/><rect class="cls-7" x="303.09" y="279.63" width="30" height="30" rx="11.43" ry="11.43"/>
<rect class="cls-8" x="364.32" y="279.63" width="30" height="30" rx="11.43" ry="11.43"/><rect class="cls-9" x="425.54" y="279.63" width="30" height="30" rx="11.43" ry="11.43"/></svg>